<svg width="20" height="21" viewBox="0 0 20 21" fill="none" xmlns="http://www.w3.org/2000/svg">
<path id="ContainerImage" d="M7.20948 21C2.15804 21 0 18.7334 0 13.4298V7.57024C0 2.26664 2.15804 0 7.20948 0H12.7906C17.842 0 20 2.26664 20 7.57024V13.4298C20 18.7334 17.842 21 12.7906 21H7.20948ZM1.3951 7.57096V13.4304C1.3951 17.9323 2.921 19.5351 7.20948 19.5351H12.7906C17.0784 19.5351 18.6056 17.933 18.6056 13.4304V7.57096C18.6056 3.0691 17.0797 1.46632 12.7906 1.46632H7.20948C2.921 1.46632 1.3951 3.06838 1.3951 7.57096ZM12.8384 17.365C12.7087 17.2274 12.6356 17.0418 12.6344 16.8482V13.0403C12.6353 12.8467 12.7085 12.6611 12.8384 12.5236C12.9696 12.3871 13.1462 12.3103 13.3309 12.3094C13.5153 12.3107 13.6917 12.3875 13.8227 12.5236C13.9531 12.6608 14.027 12.8466 14.0275 13.0403V16.8482C14.0267 17.042 13.9528 17.2276 13.8227 17.365C13.6917 17.5011 13.5153 17.5781 13.3309 17.5794C13.1462 17.5785 12.9696 17.5015 12.8384 17.365ZM6.17861 17.365C6.04892 17.2274 5.9758 17.0418 5.97455 16.8482V15.5928C5.60604 15.5033 5.25554 15.345 4.94036 15.1255C4.42879 14.7651 4.03017 14.2543 3.79385 13.6571C3.55817 13.0585 3.4956 12.4001 3.61504 11.7647C3.73579 11.1302 4.03336 10.5474 4.46911 10.0898C4.90517 9.63244 5.46042 9.32112 6.06492 9.19512C6.66961 9.06984 7.2958 9.13468 7.86548 9.38162C8.43474 9.62949 8.92186 10.0487 9.26455 10.5864C9.60674 11.1244 9.78905 11.7567 9.78899 12.4036C9.78936 12.8334 9.70911 13.2591 9.55236 13.6562C9.39561 14.0533 9.16561 14.4139 8.87574 14.7175C8.46242 15.1518 7.94092 15.4552 7.37098 15.5928V16.8482C7.37105 16.9447 7.35273 17.0402 7.31717 17.1291C7.28305 17.2182 7.23205 17.299 7.16692 17.3664C7.10198 17.4345 7.02498 17.4886 6.9403 17.5257C6.85542 17.5631 6.76386 17.5821 6.6718 17.5815C6.48655 17.5805 6.30942 17.5027 6.17861 17.365ZM5.71336 10.9031C5.43036 11.1012 5.20986 11.3828 5.07929 11.7126C4.94867 12.0432 4.91467 12.4071 4.98092 12.7581C5.04836 13.1081 5.21173 13.4295 5.45148 13.6827C5.69255 13.9347 5.99917 14.1062 6.3328 14.1757C6.6668 14.2457 7.01305 14.2103 7.3278 14.0737C7.64198 13.9364 7.91099 13.7046 8.10011 13.4076C8.2893 13.1102 8.39005 12.7605 8.38992 12.4029C8.39011 11.9241 8.20905 11.4648 7.88674 11.1261C7.56361 10.7874 7.12567 10.5973 6.66911 10.5973C6.32986 10.5977 5.9988 10.7042 5.71736 10.9031H5.71336ZM11.5988 11.3167C11.0862 10.9569 10.687 10.4457 10.451 9.84762C10.2152 9.24985 10.1531 8.59209 10.2735 7.95756C10.3936 7.32303 10.6901 6.74015 11.1256 6.28255C11.5393 5.84831 12.0609 5.54492 12.6311 5.40711V4.15177C12.6324 3.95883 12.7062 3.77412 12.8357 3.63727C12.9669 3.50076 13.1436 3.42375 13.3282 3.42286C13.5126 3.42416 13.689 3.50113 13.8201 3.63727C13.95 3.77386 14.0239 3.9587 14.0248 4.15177V5.40711C14.194 5.44806 14.3594 5.50364 14.52 5.57308C15.0892 5.82127 15.5757 6.24022 15.9191 6.77769C16.2611 7.31647 16.4438 7.94962 16.4435 8.59707C16.4436 9.46385 16.1161 10.2952 15.5329 10.9086C15.2435 11.2128 14.8996 11.454 14.5213 11.6185C14.1431 11.7831 13.7377 11.8678 13.3282 11.8676C12.7128 11.8669 12.1112 11.675 11.5995 11.316L11.5988 11.3167ZM12.3732 7.09361C12.0911 7.29258 11.871 7.57411 11.7397 7.90329C11.6107 8.2343 11.5771 8.59767 11.6427 8.94863C11.709 9.29861 11.8717 9.62017 12.1113 9.87328C12.3533 10.1261 12.661 10.2983 12.9959 10.3678C13.3296 10.4373 13.6754 10.4012 13.9896 10.2642C14.3051 10.1286 14.5749 9.89645 14.7632 9.59812C14.9514 9.30189 15.0519 8.95388 15.0524 8.5978C15.0526 8.3605 15.0079 8.12549 14.9214 7.90624C14.835 7.68699 14.7084 7.48782 14.5486 7.32008C14.2261 6.98113 13.7886 6.79049 13.3322 6.78989C12.9914 6.78963 12.6579 6.89509 12.3738 7.09295L12.3732 7.09361ZM6.17992 8.47777C6.05061 8.33989 5.97755 8.1545 5.97586 7.96104V4.15177C5.9773 3.95883 6.05042 3.77416 6.17992 3.63727C6.31055 3.50085 6.48686 3.42381 6.67111 3.42286C6.85611 3.42406 7.03373 3.501 7.16561 3.63727C7.2953 3.77403 7.36848 3.95877 7.36967 4.15177V7.96104C7.3698 8.0577 7.35148 8.15345 7.3158 8.24263C7.2818 8.33169 7.23073 8.41247 7.16561 8.47987C7.10055 8.54779 7.02355 8.602 6.93898 8.63934C6.85367 8.67504 6.7623 8.69322 6.67042 8.69289C6.57892 8.69276 6.48836 8.67359 6.40392 8.63652C6.31948 8.5995 6.24305 8.5453 6.17861 8.47705L6.17992 8.47777Z" fill="#322644"/>
</svg>
